<svg width="96" height="96" viewBox="0 0 96 96" fill="currentColor" xmlns="http://www.w3.org/2000/svg">
  <path fill-rule="evenodd" clip-rule="evenodd" d="M18.343 10.657A8 8 0 0 0 16 16.314v63.372a8 8 0 0 0 2.343 5.657l.314.314A8 8 0 0 0 24.314 88h47.372a8 8 0 0 0 5.657-2.343l.314-.314A8 8 0 0 0 80 79.686V16.314a8 8 0 0 0-2.343-5.657l-.314-.314A8 8 0 0 0 71.686 8H24.314a8 8 0 0 0-5.657 2.343zM32.5 28.5c.32-.32.754-.5 1.207-.5h4.586A1.707 1.707 0 0 1 40 29.707v4.586A1.707 1.707 0 0 1 38.293 36h-4.586A1.707 1.707 0 0 1 32 34.293v-4.586c0-.453.18-.887.5-1.207M49 29c.64-.64 1.509-1 2.414-1h9.172A3.414 3.414 0 0 1 64 31.414v1.172A3.414 3.414 0 0 1 60.586 36h-9.172A3.414 3.414 0 0 1 48 32.586v-1.172c0-.905.36-1.774 1-2.414M32.5 44.5c.32-.32.754-.5 1.207-.5h4.586A1.707 1.707 0 0 1 40 45.707v4.586A1.707 1.707 0 0 1 38.293 52h-4.586A1.707 1.707 0 0 1 32 50.293v-4.586c0-.453.18-.887.5-1.207m16.344.945A3.85 3.85 0 0 1 51.85 44h8.298A3.85 3.85 0 0 1 64 47.85v.736A3.414 3.414 0 0 1 60.586 52h-9.17A3.414 3.414 0 0 1 48 48.586v-.735a3.85 3.85 0 0 1 .843-2.406ZM32.5 60.5c.32-.32.754-.5 1.207-.5h4.586A1.707 1.707 0 0 1 40 61.707v4.586A1.707 1.707 0 0 1 38.293 68h-4.586A1.707 1.707 0 0 1 32 66.293v-4.586c0-.453.18-.887.5-1.207m16.344.945A3.85 3.85 0 0 1 51.85 60h8.298A3.85 3.85 0 0 1 64 63.85v.736A3.414 3.414 0 0 1 60.586 68h-9.17A3.414 3.414 0 0 1 48 64.586v-.735a3.85 3.85 0 0 1 .843-2.406Z"/>
</svg>
