<svg width="96" height="96" viewBox="0 0 96 96" fill="currentColor" xmlns="http://www.w3.org/2000/svg">
  <path fill-rule="evenodd" clip-rule="evenodd" d="M15 68c-1.5 0-3 1.5-3 3v11q0 6 6 6h60q6 0 6-6V71c0-1.5-1.5-3-3-3zm28 12h10q3 0 3-3v-2q0-3-3-3H43q-3 0-3 3v2q0 3 3 3M15 60q-3 0-3-3V39q0-3 3-3h66q3 0 3 3v18q0 3-3 3zm28-8h10q3 0 3-3v-2q0-3-3-3H43q-3 0-3 3v2q0 3 3 3M15 28c-1.5 0-3-1.5-3-3V15c0-3 3-7 7-7h58c4 0 7 3 7 7v10c0 1.5-1.5 3-3 3zm28-4h10q3 0 3-3v-2q0-3-3-3H43q-3 0-3 3v2q0 3 3 3"/>
</svg>
