<svg width="96" height="96" viewBox="0 0 96 96" fill="currentColor" xmlns="http://www.w3.org/2000/svg"><g clip-path="url(#a)"><path d="M4.379 11.902q2.091.01 4.184.036l2.154.013q2.64.02 5.283.049v8h16v-8h32v8h16v-8q3.719-.04 7.438-.062l2.142-.026c1.807-.009 3.614.036 5.42.088 1 1 1 1 1.114 2.766l-.016 2.27-.01 2.45-.025 2.576-.014 2.588Q96.029 27.826 96 31l-4 1v64H4V32l-4-1q-.04-4.47-.062-8.937l-.026-2.577-.01-2.45-.016-2.27c.21-3.273 1.141-2.767 4.493-2.864M12 32v56h72V32z"/><path d="M68 0h8v16h-8zM20 0h8v16h-8zm48 72h8v8h-8zm-16 0h8v8h-8zm-16 0h8v8h-8zm-16 0h8v8h-8zm48-16h8v8h-8zm-16 0h8v8h-8zm-16 0h8v8h-8zm-16 0h8v8h-8zm48-16h8v8h-8zm-16 0h8v8h-8zm-16 0h8v8h-8zm-16 0h8v8h-8z"/></g><defs><clipPath id="a"><path d="M0 0h96v96H0z"/></clipPath></defs></svg>