<svg width="96" height="96" viewBox="0 0 96 96" fill="currentColor" xmlns="http://www.w3.org/2000/svg">
  <path d="m59.793 43.648 2.509 1.13c2.633 1.188 5.26 2.393 7.886 3.597q2.666 1.204 5.334 2.406l5.084 2.305 2.414 1.096 2.246 1.03 1.971.902C89 57 89 57 92 59c.25 3.063.25 3.063 0 6-1 1-1 1-4.562 1.063L84 66l.035 3.684.028 4.754.025 2.431A206 206 0 0 1 84 83c-1.775 1.775-4.35 1.13-6.75 1.133l-3.531.004L70 84.125l-3.719.012-3.531-.004-3.266-.004C57 84 57 84 56 83c-.244-2.777-.384-5.552-.523-8.336-.283-2.662-.283-2.662-1.766-4.492-2.063-1.413-3.227-1.575-5.711-1.547l-2.062-.023C43.352 69.133 42.52 69.845 41 72c-.541 2.7-.541 2.7-.625 5.625-.292 5.292-.292 5.292-1.375 6.375-1.915.1-3.833.13-5.75.133l-3.531.004L26 84.125l-3.719.012-3.531-.004-3.266-.004C13 84 13 84 12 83c-.073-2.863-.092-5.7-.062-8.562l.013-2.444q.02-2.997.049-5.994c-1.702.03-1.702.03-3.438.063C5 66 5 66 4 65c-.04-2-.043-4 0-6 9.567-4.976 19.285-9.587 29.125-14l3.267-1.493 3.116-1.382 2.77-1.242c6.745-2.188 11.4-.061 17.515 2.765"/>
  <path d="m53.868 9.086 2.933 1.504 3.209 1.627 3.303 1.72 3.36 1.71c8.13 4.156 8.13 4.156 9.327 5.353.125 3 .125 3 0 6l-1 1h-6l-1 12c-4.251-.85-7.433-1.95-11.375-3.625-8.031-3.094-12.093-2.057-19.875 1.188l-3.078 1.378C31 40 31 40 28 40l-1-12h-6c-1-1-1-1-1.062-4.062L20 21q4.562-2.407 9.125-4.812l2.594-1.37q2.511-1.323 5.028-2.633a222 222 0 0 0 5.495-3.01c4.168-1.776 7.388-1.693 11.626-.09"/>
</svg>
