<svg width="96" height="96" viewBox="0 0 96 96" fill="currentColor" xmlns="http://www.w3.org/2000/svg">
  <path fill-rule="evenodd" clip-rule="evenodd" d="M16 40.5v42c0 4 3 7 7 7h50c4 0 7-3 7-7v-42c0-4-3-7-7-7h-1v-6C72 19.5 65 6 51 6h-6C31 6 24 19.5 24 27.5v6h-1c-4 0-7 3-7 7m48-7H32v-6c0-6 6-14 13-14h6c7 0 13 8 13 14zm-33 24h2c1.5 0 3 1.5 3 3v2c0 1.5-1.5 3-3 3h-2c-1.5 0-3-1.5-3-3v-2c0-1.5 1.5-3 3-3m16 0h2c1.5 0 3 1.5 3 3v2c0 1.5-1.5 3-3 3h-2c-1.5 0-3-1.5-3-3v-2c0-1.5 1.5-3 3-3m16 0h2c1.5 0 3 1.5 3 3v2c0 1.5-1.5 3-3 3h-2c-1.5 0-3-1.5-3-3v-2c0-1.5 1.5-3 3-3"/>
</svg>
